<?xml version="1.0" encoding="utf-8"?>
<!-- Generator: Adobe Illustrator 26.3.1, SVG Export Plug-In . SVG Version: 6.00 Build 0)  -->
<svg version="1.1" id="图层_1" xmlns="http://www.w3.org/2000/svg" xmlns:xlink="http://www.w3.org/1999/xlink" x="0px" y="0px"
	 viewBox="0 0 41.97 41.97" style="enable-background:new 0 0 41.97 41.97;" xml:space="preserve">
<style type="text/css">
	.st0{fill:#2BA567;}
</style>
<g>
	<path class="st0" d="M20.98,0C9.39,0,0,9.39,0,20.98s9.39,20.98,20.98,20.98c11.59,0,20.98-9.39,20.98-20.98S32.57,0,20.98,0z
		 M20.98,38.66c-9.76,0-17.67-7.91-17.67-17.67S11.22,3.31,20.98,3.31c9.76,0,17.67,7.91,17.67,17.67S30.74,38.66,20.98,38.66z"/>
	<path class="st0" d="M33.75,17.99L22.3,6.54c-0.73-0.73-1.92-0.73-2.65,0L8.42,17.77c-0.13,0.13-0.2,0.3-0.2,0.48v3.94
		c0,0.61,0.73,0.91,1.16,0.48l9.07-9.07c0.16-0.16,0.42-0.05,0.42,0.17v21.89c0,0.69,0.56,1.25,1.25,1.25h1.56
		c0.69,0,1.25-0.56,1.25-1.25V13.64c0-0.22,0.27-0.33,0.42-0.17l9.43,9.43c0.43,0.43,1.16,0.13,1.16-0.48v-3.95
		C33.95,18.29,33.88,18.12,33.75,17.99z"/>
</g>
</svg>
