<?xml version="1.0" encoding="utf-8"?>
<!-- Generator: Adobe Illustrator 26.3.1, SVG Export Plug-In . SVG Version: 6.00 Build 0)  -->
<svg version="1.1" id="图层_1" xmlns="http://www.w3.org/2000/svg" xmlns:xlink="http://www.w3.org/1999/xlink" x="0px" y="0px"
	 viewBox="0 0 72.2 7.97" style="enable-background:new 0 0 72.2 7.97;" xml:space="preserve">
<style type="text/css">
	.st0{fill:#FFFFFF;}
</style>
<g>
	<path class="st0" d="M2.29,0.93c0-0.26,0-0.47,0-0.69c1.7,0,3.39,0,5.1,0c-0.15,0.3-0.26,0.59-0.43,0.83
		c-0.18,0.24-0.33,0.49-0.4,0.8c0.3,0.04,0.58,0.07,0.85,0.1c0.05,0.1,0.07,0.17,0.12,0.23c0.18,0.2,0.25,0.44,0.25,0.69
		c0.01,0.66,0,1.32,0,1.99c0,0.2,0.01,0.4,0,0.6c-0.02,0.19-0.07,0.37-0.1,0.54c-0.27,0.35-0.6,0.55-1.1,0.43
		C6.49,6.26,6.4,6.04,6.3,5.8c0.07,0,0.15,0,0.21,0c0.1-0.1,0.18-0.18,0.26-0.27c0-0.15,0.07-0.33-0.18-0.44c-0.25,0-0.54,0-0.88,0
		c-0.05,0.07-0.12,0.16-0.24,0.3c0,0.27,0,0.61,0,0.97c-0.29,0-0.57,0-0.9,0c0-0.31,0.01-0.64,0-0.96c0-0.1-0.05-0.2-0.08-0.3
		c-0.39,0-0.73,0-1.07,0C3.38,5.13,3.34,5.17,3.29,5.22c0,0.36,0,0.73,0,1.13c-0.34,0-0.66,0-1,0c0-1.47,0-2.94,0-4.43
		c0.27,0,0.55,0,0.77,0c0.34-0.17,0.19-0.37,0.07-0.6c0.2-0.01,0.35-0.02,0.51-0.02c0.16,0,0.33,0,0.47,0
		c0.13,0.2,0.25,0.38,0.37,0.58c0.25,0,0.49,0,0.74,0c0.12-0.33,0.55-0.51,0.54-0.96C4.62,0.93,3.48,0.93,2.29,0.93z M3.3,3.18
		c0.38,0,0.72,0,1.06,0c0.17-0.29,0.17-0.31-0.01-0.57c-0.34,0-0.68,0-1.02,0C3.11,2.79,3.14,2.98,3.3,3.18z M3.32,3.9
		C3.12,4.2,3.13,4.23,3.34,4.49c0.33,0,0.67,0,1,0c0.05-0.05,0.1-0.1,0.14-0.14c0-0.16,0.05-0.33-0.15-0.44
		C4.01,3.9,3.68,3.9,3.32,3.9z M6.58,4.49c-0.02-0.2,0.02-0.4-0.03-0.58c-0.34,0-0.65,0-0.95,0c-0.18,0.3-0.18,0.32,0.03,0.58
		C5.93,4.49,6.23,4.49,6.58,4.49z M6.57,2.74C6.26,2.52,5.92,2.62,5.63,2.6c-0.07,0.07-0.1,0.1-0.14,0.14c0,0.14,0,0.28,0,0.44
		c0.36,0,0.72,0,1.08,0C6.57,3.02,6.57,2.88,6.57,2.74z"/>
	<path class="st0" d="M22.14,3.89c-0.81,1.29-1.61,2.56-2.43,3.86c-0.41,0-0.85,0-1.32,0c0.33-0.54,0.65-1.07,0.98-1.6
		c0.34-0.55,0.73-1.08,1.05-1.65c0.31-0.55,0.74-1.03,0.98-1.61c-0.04-0.05-0.05-0.06-0.07-0.07C21.32,2.81,21.3,2.8,21.29,2.8
		c-1,0-1.99,0-3.01,0c0-0.29,0-0.57,0-0.89c0.11,0,0.24,0,0.37,0c0.87,0,1.73,0.01,2.6,0c0.2,0,0.4-0.05,0.61-0.08
		c0-0.62,0-1.19,0-1.78c0.36,0,0.71,0,1.09,0c0,0.57,0,1.16,0,1.71c0.07,0.07,0.11,0.11,0.16,0.16c0.96,0,1.94,0,2.93,0
		c0,0.29,0,0.57,0,0.87c0.01-0.01,0,0.01-0.01,0.01C26.01,2.79,26,2.8,25.98,2.8c-1.06,0-2.13,0-3.16,0C22.7,3,22.6,3.17,22.47,3.39
		c0,0.05,0.58,0,0.8,0.06c0.36,0.24,0.24,0.2,0.37,0.39c0.14,0.25,0.25,0.57,0.45,0.81c0.27,0.33,0.42,0.74,0.68,1.06
		c0.43,0.53,0.67,1.17,1.14,1.67c0.08,0.08,0.11,0.22,0.18,0.36c-0.41,0-0.79,0-1.24,0c-0.17-0.24-0.41-0.52-0.59-0.84
		c-0.36-0.64-0.81-1.22-1.18-1.85c-0.2-0.34-0.48-0.62-0.63-0.98C22.4,3.91,22.27,3.87,22.14,3.89z"/>
	<path class="st0" d="M64.33,3.89c0-0.31,0-0.59,0-0.88c0.72,0,1.43,0,2.13,0c0.06-0.06,0.11-0.11,0.18-0.17c0-0.92,0-1.86,0-2.81
		c0.36,0,0.71,0,1.07,0c0,0.15,0,0.29,0,0.42c0.06,0.06,0.11,0.11,0.18,0.17c1.26,0,2.54,0,3.83,0c0,0.29,0,0.57,0,0.87
		c-1.27,0-2.55,0-3.82,0c-0.05,0.06-0.1,0.11-0.15,0.18c0,0.39,0,0.8,0,1.18C67.83,3.04,67.99,3,68.14,3c1.08,0,2.16,0,3.25,0
		c0.26,0,0.53,0,0.81,0c0,0.3,0,0.59,0,0.89c-1.29,0-2.57,0-3.85,0c-0.2,0-0.4,0.05-0.62,0.07c0,1.34,0,2.65,0,3.97
		c-0.37,0-0.73,0-1.1,0c0-1.3,0-2.61,0-3.9c-0.19-0.14-0.39-0.16-0.61-0.16C65.47,3.9,64.92,3.89,64.33,3.89z"/>
	<path class="st0" d="M44.64,0.03c0,0.61,0.01,1.2,0,1.79c-0.01,0.58-0.29,0.87-0.88,0.87c-1.01,0.01-2.03,0-3.04,0
		c-0.08,0-0.16,0-0.22,0c-0.06,0.06-0.09,0.09-0.14,0.14c0,1.44,0,2.89,0,4.36c-0.19,0.21-0.24,0.47-0.21,0.76
		c-0.34,0-0.65,0-0.99,0c0.03-0.06,0.09-0.13,0.08-0.18c-0.07-0.36,0.05-0.71,0.13-1.05c0.13-0.6,0.05-1.2,0.07-1.8
		c0.02-0.59,0.01-1.19,0-1.79c0-0.07-0.06-0.14-0.07-0.17c0.03-0.2,0.07-0.37,0.07-0.54c0.01-0.79,0-1.58,0-2.39
		C41.17,0.03,42.88,0.03,44.64,0.03z M40.36,0.82c0,0.39,0,0.73,0,1.08c1.05,0,2.07,0,3.1,0c0.01,0,0.03-0.01,0.04-0.02
		c0.01-0.01,0.02-0.02,0.02-0.02c0-0.36,0-0.7,0-1.05C42.46,0.82,41.42,0.82,40.36,0.82z"/>
	<path class="st0" d="M35.43,6.4c0,0.47,0,0.91,0,1.4c-0.35-0.17-0.54-0.47-0.79-0.69c-0.26-0.24-0.5-0.49-0.77-0.76
		c-0.48,0.49-0.88,1.06-1.52,1.44c0-0.44,0.01-0.85,0-1.26c-0.01-0.27,0.21-0.4,0.36-0.53c0.2-0.18,0.32-0.42,0.56-0.57
		c-0.25-0.45-0.52-0.9-0.6-1.4c-0.08-0.49-0.37-0.97-0.16-1.51c0.21,0,0.46,0,0.73,0c0.07,0.23,0.19,0.47,0.21,0.73
		c0.04,0.41,0.16,0.79,0.36,1.14c0.07,0,0.13,0,0.22,0c0.1-0.23,0.23-0.47,0.3-0.72c0.08-0.27,0.05-0.58,0.16-0.83
		c0.13-0.28,0-0.54,0.09-0.78C34.5,2,34.46,1.97,34.4,1.91c-0.3,0-0.63,0-0.96,0c-0.32,0-0.63,0-0.95,0
		c-0.13-0.26,0.13-0.4,0.16-0.6c0.04-0.22,0.05-0.44,0.11-0.65c0.06-0.21,0.15-0.4,0.24-0.62c0.32,0,0.67,0,1.04,0
		c0.03,0.33-0.2,0.61-0.19,0.97c0.53,0,1.05,0,1.6,0c0,0.41,0.05,0.8-0.01,1.16c-0.12,0.69-0.14,1.4-0.39,2.07
		c-0.13,0.34-0.28,0.68-0.42,1.02c-0.04,0.08-0.07,0.17-0.1,0.26c0.25,0.07,0.28,0.31,0.43,0.43C35.13,6.08,35.27,6.24,35.43,6.4z"
		/>
	<path class="st0" d="M58.44,7.75c0-0.29,0-0.57,0-0.86c0.55,0,1.1,0,1.67,0c0-0.27,0-0.53,0-0.78c-0.04-0.04-0.07-0.07-0.13-0.13
		c-0.46,0-0.94,0-1.43,0c0-0.26,0-0.5,0-0.78c0.47,0,0.96,0,1.42,0c0.07-0.07,0.11-0.11,0.15-0.15c0-0.2,0-0.41,0-0.64
		c-0.55,0-1.09,0-1.68,0c-0.02-0.3-0.01-0.59-0.01-0.9c1.53,0,3.04,0,4.57,0c0,0.27,0,0.56,0,0.87c-0.54,0-1.09,0-1.65,0
		c0,0.27,0,0.53,0,0.8c0.52,0,1.03,0,1.56,0c0,0.26,0,0.5,0,0.78C62.69,6,62.44,5.97,62.2,5.98c-0.25,0-0.49,0-0.72,0
		c-0.05,0.05-0.09,0.09-0.14,0.14c0,0.23,0,0.47,0,0.75c0.55,0,1.11,0,1.68,0c0,0.31,0,0.59,0,0.88C61.5,7.75,59.99,7.75,58.44,7.75
		z"/>
	<path class="st0" d="M30.73,4.57c0.05-0.13,0.1-0.24,0.16-0.37c0.31,0,0.62,0,0.96,0c0,0.12,0,0.24,0,0.37
		c0.11,0.01,0.19,0.02,0.29,0.03c0,0.25,0,0.51,0,0.77c-0.09,0.01-0.17,0.02-0.27,0.03c0,0.38,0,0.75,0,1.13
		c-0.18,0.13-0.35,0.25-0.58,0.42c0.28,0.07,0.5,0.12,0.76,0.18c0,0,0.03,0.03,0.08,0.08c0,0.2,0,0.41,0,0.62
		c-0.04,0.04-0.09,0.09-0.11,0.11c-0.19-0.06-0.37-0.17-0.54-0.16c-0.36,0.03-0.7-0.12-1.06-0.12c-0.07,0-0.14-0.05-0.21-0.08
		c-0.43-0.15-0.44-0.16-0.85-0.01c-0.19,0.07-0.41,0.02-0.55,0.11c-0.18,0.11-0.35,0.07-0.52,0.08c-0.28,0.01-0.54,0.11-0.83,0.18
		c0-0.23,0-0.47,0-0.74c0.03-0.03,0.08-0.07,0.14-0.14c0.12,0,0.27,0,0.4,0c0.06-0.06,0.1-0.11,0.15-0.16
		c-0.02-0.05-0.03-0.1-0.07-0.12C28,6.7,27.89,6.64,27.78,6.56c0-0.38,0-0.75,0-1.15c-0.1-0.02-0.19-0.03-0.3-0.05
		c0-0.24,0-0.48,0-0.75c0.07-0.01,0.16-0.03,0.27-0.05c0-0.11,0-0.22,0-0.35c0.34,0,0.66,0,0.98,0c0.04,0.12,0.07,0.24,0.11,0.36
		C29.48,4.57,30.09,4.57,30.73,4.57z M30.74,6.12c0-0.23,0-0.48,0-0.73c-0.63,0-1.23,0-1.84,0c-0.34,0.26,0,0.52-0.03,0.78
		C29.29,6.17,29.57,6.6,30,6.44C30.23,6.34,30.47,6.23,30.74,6.12z"/>
	<path class="st0" d="M1.39,7.75c-0.05-0.09-0.1-0.17-0.15-0.27c-0.06,0-0.14,0-0.21,0c-0.06,0.1-0.12,0.19-0.17,0.27
		c-0.27,0-0.51,0-0.76,0c-0.09-0.33,0.4-2.34,0.59-2.6C0.65,5.11,0.61,5.06,0.55,5C0.42,5,0.28,5,0.12,5
		C0.11,4.94,0.05,4.7,0.09,4.66C0.24,4.47,0.6,2.67,0.54,2.6c-0.16,0-0.34,0-0.54,0c0-0.26,0-0.5,0-0.77
		c0.03-0.03,0.08-0.08,0.12-0.12c0.55,0,1.09,0,1.66,0c0.04,0.43-0.54,1.9-0.6,2.27c0.09,0.25,0.29,0.19,0.47,0.2
		C1.59,4.49,1.3,5.71,1.37,5.95C1.54,6.25,1.64,6.5,1.79,6.71c0.07,0.11,0.22,0.17,0.36,0.27c1.85,0,3.73,0,5.62,0
		c0,0.26,0,0.5,0,0.77C5.65,7.75,3.54,7.75,1.39,7.75z"/>
	<path class="st0" d="M43.26,5.19c0.43,0,0.84,0,1.27,0c0,0.66,0,1.3,0,1.88c-0.09,0.22-0.15,0.39-0.23,0.58
		c-0.01,0-0.07-0.01-0.1,0.02C44.09,7.76,44,7.86,43.9,7.96c-0.97,0-1.95,0-2.94,0c0-0.91,0-1.82,0-2.76c0.41,0,0.83,0,1.27,0
		c0-0.28,0-0.52,0-0.8c-0.45,0-0.91,0-1.37,0c0-0.28,0-0.52,0-0.78c0.45,0,0.89,0,1.36,0c0.02-0.14,0.03-0.26,0.04-0.4
		c0.31,0,0.62,0,0.97,0c0.01,0.11,0.02,0.23,0.03,0.37c0.46,0,0.9,0,1.37,0c0,0.27,0,0.53,0,0.8c-0.45,0-0.9,0-1.36,0
		C43.26,4.65,43.26,4.89,43.26,5.19z M41.98,7.16c0.45,0,0.9,0,1.32,0c0.05-0.05,0.08-0.08,0.11-0.11c0-0.43,0-0.85,0-1.25
		c-0.5,0-0.97,0-1.44,0c-0.05,0.05-0.08,0.08-0.14,0.14c0,0.31-0.01,0.63,0.01,0.96C41.85,6.97,41.93,7.05,41.98,7.16z"/>
	<path class="st0" d="M58.45,0.03c1.53,0,3.03,0,4.58,0c0,0.68,0.04,1.36-0.01,2.03c-0.03,0.38-0.22,0.74-0.61,0.92
		c-0.07,0.03-0.14,0.06-0.27,0.11c-1.17,0-2.42,0-3.68,0C58.45,2.08,58.45,1.07,58.45,0.03z M59.64,2.19c0.7,0,1.39,0,2.06,0
		c0.05-0.05,0.09-0.09,0.12-0.12c0-0.38,0-0.75,0-1.14c-0.73,0-1.45,0-2.18,0C59.64,1.36,59.64,1.77,59.64,2.19z"/>
	<path class="st0" d="M52.45,6.95c-0.14,0.28-0.26,0.5-0.38,0.74c-0.15,0.08-0.31,0.16-0.51,0.26c-0.47,0-0.98,0-1.54,0
		c0.13-0.3,0.25-0.57,0.38-0.87c0.16,0,0.36,0,0.59,0c0.07-0.09,0.15-0.19,0.25-0.31c0-1.11,0-2.27,0-3.43
		c-0.05-0.05-0.1-0.1-0.15-0.14c-0.76,0-1.53,0-2.34,0c-0.01-0.29,0-0.58-0.01-0.88c1.7,0,3.37,0,5.07,0c0,0.27,0,0.56,0,0.86
		c-0.44,0.09-0.91-0.1-1.36,0.15C52.45,4.55,52.45,5.78,52.45,6.95z"/>
	<path class="st0" d="M11.68,7.97c0-1.04,0-2.04,0-3.06c1.75,0,3.49,0,5.29,0c0,0.42,0.01,0.87,0,1.31
		c-0.01,0.43-0.04,0.87-0.07,1.31c-0.2,0.16-0.39,0.3-0.59,0.45C14.78,7.97,13.25,7.97,11.68,7.97z M15.74,7.16
		c0.25-0.5,0.06-1.03,0.13-1.52c-0.06-0.06-0.11-0.1-0.15-0.15c-1.05,0-2.09,0-3.14,0c0,0.56,0,1.11,0,1.67
		C13.65,7.16,14.69,7.16,15.74,7.16z"/>
	<path class="st0" d="M38.45,4.74c0,0.64,0,1.33,0,2.03c0,0.22-0.02,0.43-0.09,0.66c-0.08,0.26-0.32,0.3-0.47,0.44
		c-0.02,0.02-0.05,0.05-0.1,0.09c-0.14,0-0.3,0-0.46,0c-0.15,0-0.3,0-0.49,0c0.04-0.22,0.08-0.43,0.13-0.67
		c0.06-0.01,0.16-0.03,0.25-0.05c0.24-0.33,0.24-0.33,0.21-0.86c-0.21,0-0.42,0-0.65,0c0.09-0.51,0.36-0.94,0.52-1.41
		c0.09-0.26,0.16-0.51,0.15-0.78c-0.01-0.82,0-1.65,0-2.45c-0.06-0.06-0.09-0.09-0.15-0.14c-0.19,0-0.41,0-0.64,0
		c0-0.29,0-0.57,0-0.88c0.2,0,0.42,0,0.59,0c0.31-0.2,0.12-0.47,0.22-0.69c0.3,0,0.62,0,0.96,0c0,0.21,0,0.43,0,0.65
		c0.13,0,0.24,0,0.39,0c0.03,0.3,0.01,0.59,0.01,0.9c-0.09,0-0.17,0-0.23,0c-0.06,0.06-0.11,0.11-0.16,0.16c0,0.42,0,0.85,0,1.32
		c0.19,0.05,0.39,0.11,0.59,0.17C38.86,3.72,38.67,4.18,38.45,4.74z"/>
	<path class="st0" d="M11.15,7.96c-0.39,0-0.77,0-1.16,0c0-1.61,0-3.21,0-4.84c-0.27,0-0.53,0-0.78,0C9.16,2.92,9.18,2.79,9.26,2.63
		C9.4,2.38,9.77,1.27,9.87,1c0.02-0.06,0.31-0.67,0.3-0.97c0.43,0,0.85,0,1.28,0c-0.03,0.07-0.21,0.73-0.28,0.9
		C11.1,1.1,10.9,1.8,10.86,1.99c0.12,0.01,0.19,0.02,0.29,0.03C11.15,3.98,11.15,5.95,11.15,7.96z"/>
	<path class="st0" d="M57.05,7.76c-0.3,0-0.54,0-0.8,0c0-1.58,0-3.15,0-4.7c-0.1-0.05-0.18-0.09-0.3-0.15c-0.23,0-0.49,0-0.8,0
		c-0.03-0.29-0.01-0.57-0.01-0.88c0.33,0,0.64,0,0.94,0c0.06-0.06,0.11-0.11,0.16-0.16c0-0.19,0-0.39,0-0.61
		c-0.04-0.03-0.09-0.07-0.17-0.14c-0.27,0-0.58,0-0.91,0c0-0.29,0-0.57,0-0.89c0.13,0,0.28,0,0.42,0c0.67,0.01,1.33-0.16,2.01-0.11
		C57.7,0.12,57.84,0.04,57.96,0c0.07,0.07,0.11,0.11,0.16,0.16c0,0.23,0,0.46,0,0.71c-0.04,0.03-0.09,0.07-0.16,0.13
		c-0.28,0.05-0.62-0.1-0.92,0.17c0,0.2,0,0.45,0,0.69c0.04,0.04,0.07,0.07,0.12,0.12c0.29,0,0.6,0,0.94,0c0,0.3,0,0.59,0,0.9
		c-0.31,0-0.62,0-0.92,0c-0.05,0.05-0.09,0.09-0.14,0.14C57.05,4.58,57.05,6.15,57.05,7.76z"/>
	<path class="st0" d="M46.88,0.03c0.38,0,0.76,0,1.13,0c-0.08,0.27-0.13,0.54-0.24,0.79c-0.14,0.29-0.22,0.47-0.24,0.75
		c-0.06,0.06-0.12,0.12-0.18,0.18C47.39,1.82,47.43,1.9,47.48,2c0.13,0,0.27,0,0.43,0c0.01,0.06,0.04,0.11,0.03,0.15
		c-0.06,0.19-0.12,0.38-0.2,0.56c-0.14,0.31-0.25,0.61-0.18,0.95c0.06,0.06,0.12,0.12,0.17,0.17c0,1.37,0,2.74,0,4.12
		c-0.32,0-0.63,0-0.99,0c0-0.14,0-0.28,0-0.42c0-0.89,0-1.79,0-2.68c0-0.13,0.01-0.27-0.17-0.36c-0.14,0-0.32,0-0.51,0
		c-0.03-0.17-0.04-0.3,0.06-0.47c0.07-0.12,0.07-0.28,0.14-0.44c0.15-0.33,0.34-0.67,0.25-1.08c-0.15,0-0.3,0-0.49,0
		c0.09-0.3,0.09-0.57,0.28-0.84c0.16-0.23,0.09-0.59,0.27-0.82C46.77,0.59,46.68,0.26,46.88,0.03z"/>
	<path class="st0" d="M31.87,0.33c-0.05,0.25-0.09,0.48-0.15,0.75c0.13,0.06,0.26,0.11,0.41,0.17c0,0.18,0,0.39,0,0.62
		c-0.03,0.03-0.08,0.08-0.12,0.12c-0.56,0.08-1.12-0.08-1.67,0.11c0,0.58,0,1.12,0,1.68c-0.36,0-0.71,0-1.07,0c0-0.53,0-1.07,0-1.58
		c-0.19-0.23-0.42-0.19-0.65-0.19c-0.38,0-0.76,0-1.16,0c0-0.26,0-0.5,0-0.75c0.11-0.04,0.24-0.09,0.4-0.15
		c-0.05-0.27-0.09-0.51-0.14-0.77c0.32,0,0.59,0,0.88,0c0.29,0.21,0.1,0.67,0.44,0.92c0.07-0.06,0.13-0.12,0.2-0.19
		c0-0.33,0-0.67,0-1.03c0.36,0,0.71,0,1.07,0c0,0.33,0,0.67,0,0.99c0.07,0.09,0.12,0.15,0.19,0.23c0.08-0.07,0.15-0.11,0.2-0.15
		c0.04-0.26,0.07-0.5,0.11-0.77C31.18,0.33,31.49,0.33,31.87,0.33z"/>
	<path class="st0" d="M11.68,1.59c0-0.3,0-0.57,0-0.86c0.69,0,1.36,0,2.04,0c0.05-0.37,0.05-0.37-0.06-0.68
		c0.19-0.05,0.39-0.02,0.58-0.03c0.2-0.01,0.4,0,0.61,0c0.05,0.19,0.1,0.37,0.16,0.59c0.01,0.01,0.06,0.06,0.1,0.1
		c0.6,0,1.2,0,1.84,0c0.01,0.29,0,0.57,0.01,0.88C15.21,1.59,13.46,1.59,11.68,1.59z"/>
	<path class="st0" d="M11.69,3.5c1.76,0,3.5,0,5.26,0c0,0.28,0,0.56,0,0.84c-0.41,0.07-3.7,0.09-5.26,0.03
		C11.69,4.1,11.69,3.82,11.69,3.5z"/>
	<path class="st0" d="M11.67,2.01c1.78,0,3.52,0,5.28,0c0,0.28,0,0.56,0,0.84c-0.41,0.07-3.77,0.09-5.28,0.03c0-0.14,0-0.29,0-0.43
		C11.67,2.32,11.67,2.19,11.67,2.01z"/>
	<path class="st0" d="M49.37,1.09c-0.05-0.05-0.09-0.08-0.12-0.12c0-0.31,0-0.62,0-0.94c1.32,0,2.63,0,3.97,0
		c0,0.16,0.01,0.33,0.01,0.51c0,0.18,0,0.36,0,0.55C51.94,1.09,50.67,1.09,49.37,1.09z"/>
	<path class="st0" d="M71.97,7.46c-0.49,0-0.9,0-1.3,0c-0.72-0.87-1.44-1.74-2.2-2.65c0.43,0,0.8,0,1.2,0
		C70.41,5.66,71.16,6.53,71.97,7.46z"/>
	<path class="st0" d="M55.33,3.51c0.25,0,0.46,0,0.72,0c-0.04,0.17-0.1,0.31-0.12,0.46c-0.02,0.16,0.04,0.36-0.03,0.48
		c-0.08,0.13-0.06,0.25-0.07,0.37c-0.01,0.1-0.01,0.2,0,0.3c0.06,0.88-0.1,1.75-0.11,2.64c-0.19,0-0.37,0-0.59,0
		c0.04-0.24-0.09-0.5,0.1-0.74c0.03-0.04,0-0.13,0-0.19c0-0.1,0-0.2,0-0.3c0-0.33-0.01-0.66,0-0.99c0.01-0.34,0-0.67,0.08-1.01
		C55.39,4.22,55.33,3.87,55.33,3.51z"/>
	<path class="st0" d="M58.15,7.76c-0.23,0-0.41,0-0.6,0c-0.05-0.39-0.01-0.77-0.1-1.15c-0.09-0.38-0.02-0.79-0.02-1.19
		c0-0.02,0-0.03,0-0.05c0.03-0.49-0.16-0.96-0.11-1.45c0.01-0.12-0.07-0.25-0.12-0.41c0.23,0,0.41,0,0.6,0
		c0.04,0.04,0.08,0.08,0.13,0.13c-0.03,0.93,0.17,1.85,0.11,2.78c-0.02,0.26-0.07,0.56,0.02,0.78C58.13,7.39,58.09,7.55,58.15,7.76z
		"/>
	<path class="st0" d="M0.05,0.04c0.35,0,0.66,0,1,0c0.02,0.41,0.42,0.7,0.43,1.16c-0.3,0-0.58,0-0.85,0
		C0.38,0.85,0.27,0.44,0.05,0.04z"/>
	<path class="st0" d="M28.53,2.52c0.14,0.47-0.21,0.83-0.18,1.26c-0.3,0-0.58,0-0.86,0c0.12-0.41,0.23-0.82,0.29-1.26
		C28.02,2.52,28.26,2.52,28.53,2.52z"/>
	<path class="st0" d="M31.37,3.79c-0.31-0.19-0.17-0.45-0.3-0.65c-0.1-0.15,0.04-0.41-0.1-0.62c0.27,0,0.56,0,0.85,0
		c0.07,0.39,0.13,0.79,0.21,1.24C31.81,3.85,31.55,3.75,31.37,3.79z"/>
</g>
</svg>
