<?xml version="1.0" encoding="utf-8"?>
<!-- Generator: Adobe Illustrator 26.3.1, SVG Export Plug-In . SVG Version: 6.00 Build 0)  -->
<svg version="1.1" id="图层_1" xmlns="http://www.w3.org/2000/svg" xmlns:xlink="http://www.w3.org/1999/xlink" x="0px" y="0px"
	 viewBox="0 0 90.71 10.55" style="enable-background:new 0 0 90.71 10.55;" xml:space="preserve">
<style type="text/css">
	.st0{fill:#FFFFFF;}
	.st1{fill:#D5EADF;}
	.st2{fill:#40A971;}
</style>
<g>
	<rect y="3.28" class="st0" width="90.71" height="6"/>
	<path class="st1" d="M90.71,2.27C90.41,0.97,89.25,0,87.86,0h-85C1.46,0,0.3,0.97,0,2.27V4.5h16.48l0.77,1.79
		c0.66,1.54,2.14,2.63,3.88,2.94L45.7,9.28l24.58-0.05c1.74-0.31,3.21-1.4,3.88-2.94l0.77-1.79h15.78
		C90.71,4.5,90.71,2.27,90.71,2.27z"/>
</g>
<g>
	<path class="st2" d="M29.76,5.29c0.03,0.13,0.1,0.32,0.16,0.41c-0.73,0.56-0.86,0.68-0.92,0.77c-0.04-0.11-0.16-0.32-0.23-0.4
		c0.08-0.06,0.2-0.2,0.2-0.38V4.46h-0.49V4.01h0.94v1.55L29.76,5.29z M29.28,3.77c-0.12-0.18-0.41-0.45-0.62-0.64l0.3-0.29
		c0.22,0.18,0.5,0.43,0.64,0.6L29.28,3.77z M32.18,4.04v0.34h-2.47V4.04h0.99V3.87h-0.76V3.55h0.76V3.39h-0.87V3.05h0.87V2.78h0.47
		v0.27h0.89v0.34h-0.89v0.16h0.77v0.32h-0.77v0.17H32.18z M31.91,6.06c0,0.21-0.04,0.32-0.19,0.38c-0.14,0.07-0.34,0.07-0.61,0.07
		c-0.02-0.12-0.08-0.29-0.13-0.4c0.16,0.01,0.36,0.01,0.41,0.01c0.05,0,0.07-0.02,0.07-0.06V5.93h-1.04v0.58h-0.44V4.53h1.93V6.06z
		 M30.42,4.88v0.2h1.04v-0.2H30.42z M31.46,5.62V5.39h-1.04v0.23H31.46z"/>
	<path class="st2" d="M36.25,3.97c-0.1,0.59-0.26,1.09-0.5,1.5c0.21,0.27,0.46,0.48,0.76,0.64c-0.1,0.08-0.25,0.26-0.32,0.39
		c-0.28-0.16-0.51-0.37-0.72-0.63C35.27,6.14,35,6.35,34.69,6.53c-0.06-0.1-0.21-0.3-0.3-0.39c0.34-0.17,0.61-0.39,0.83-0.67
		c-0.15-0.26-0.28-0.55-0.38-0.87c-0.06,0.1-0.14,0.2-0.21,0.29c-0.06-0.09-0.18-0.27-0.29-0.37v2.01h-0.47V5.49
		c-0.64,0.22-0.77,0.3-0.86,0.37c-0.03-0.12-0.11-0.33-0.18-0.44c0.08-0.04,0.15-0.12,0.15-0.28V3.21h0.47v1.95l0.42-0.13V2.84h0.47
		v1.58c0.31-0.39,0.5-1,0.59-1.64l0.48,0.08c-0.04,0.22-0.08,0.45-0.14,0.66h1.22v0.45H36.25z M35.13,3.97
		c-0.01,0.04-0.03,0.07-0.04,0.11c0.09,0.34,0.22,0.67,0.38,0.96c0.15-0.3,0.25-0.66,0.31-1.07H35.13z"/>
	<path class="st2" d="M39.1,3.55v0.63l0.08-0.09c0.43,0.22,1.06,0.56,1.36,0.81l-0.35,0.44c-0.23-0.2-0.69-0.5-1.09-0.73v1.9h-0.51
		V3.55h-1.44V3.07h3.56v0.48H39.1z"/>
	<path class="st2" d="M42.67,4.81c-0.02,0.12-0.02,0.31-0.02,0.4c-0.9,0.17-1.06,0.22-1.15,0.28c-0.02-0.09-0.09-0.3-0.14-0.42
		c0.1-0.02,0.18-0.11,0.3-0.26c0.06-0.06,0.16-0.21,0.28-0.4c-0.31,0.04-0.4,0.06-0.46,0.09c-0.02-0.09-0.1-0.32-0.16-0.44
		c0.08-0.02,0.15-0.1,0.22-0.23c0.08-0.12,0.31-0.61,0.43-1.06l0.45,0.21c-0.12,0.35-0.32,0.74-0.53,1.05l0.29-0.02
		c0.08-0.13,0.14-0.27,0.2-0.4l0.38,0.23c-0.19,0.36-0.43,0.74-0.68,1.06L42.67,4.81z M41.37,5.89c0.31-0.09,0.79-0.25,1.25-0.4
		l0.08,0.39c-0.42,0.16-0.87,0.33-1.22,0.46L41.37,5.89z M45.07,4.88c-0.2,0.17-0.44,0.34-0.64,0.49c0.19,0.2,0.44,0.38,0.72,0.48
		c-0.1,0.08-0.22,0.25-0.29,0.36c-0.28-0.13-0.52-0.34-0.72-0.6v0.45c0,0.2-0.04,0.31-0.17,0.38c-0.12,0.06-0.3,0.07-0.53,0.07
		c-0.02-0.12-0.08-0.29-0.13-0.41c0.14,0.01,0.28,0,0.33,0c0.04,0,0.06-0.01,0.06-0.06V5.6c-0.26,0.2-0.54,0.4-0.77,0.56L42.7,5.79
		c0.25-0.14,0.64-0.39,1.02-0.63V4.54h-0.85V4.13h1.48c0-0.08,0.01-0.16,0.02-0.24h-1.31V3.53h1.33l0.01-0.24h-1.41V2.9h1.48
		l0.06-0.02l0.34,0.02c-0.01,0.39-0.03,0.85-0.06,1.23h0.3v0.41h-0.94v0.42c0.02,0.04,0.05,0.09,0.08,0.13
		c0.17-0.14,0.35-0.31,0.47-0.44L45.07,4.88z M43.28,5.33c-0.08-0.13-0.27-0.33-0.43-0.46l0.31-0.23c0.16,0.12,0.36,0.31,0.44,0.44
		L43.28,5.33z"/>
	<path class="st2" d="M48.44,6.01c0.38,0,0.44-0.09,0.5-0.58c0.12,0.07,0.32,0.14,0.45,0.17c-0.08,0.66-0.25,0.85-0.92,0.85H47.1
		c-0.74,0-0.97-0.14-0.97-0.72V4.27c-0.08,0.06-0.16,0.12-0.24,0.18c-0.04-0.11-0.17-0.34-0.26-0.45c0.47-0.28,0.96-0.74,1.22-1.24
		l0.43,0.16c-0.03,0.06-0.07,0.12-0.1,0.17h0.92l0.09-0.02l0.3,0.23c-0.14,0.19-0.31,0.41-0.49,0.6h0.98v1.5h-0.47V5.25h-1.94v0.47
		c0,0.24,0.07,0.28,0.5,0.28H48.44z M46.89,3.51c-0.11,0.13-0.22,0.26-0.34,0.38h0.9c0.12-0.11,0.23-0.24,0.34-0.38H46.89z
		 M46.59,4.8h0.74V4.33h-0.74V4.8z M48.52,4.33h-0.73V4.8h0.73V4.33z"/>
	<path class="st2" d="M51.45,3.82c-0.12,0.2-0.27,0.41-0.43,0.61v2.09h-0.48V4.95c-0.11,0.11-0.22,0.21-0.33,0.3
		c-0.07-0.1-0.23-0.31-0.32-0.41c0.41-0.28,0.84-0.74,1.1-1.2L51.45,3.82z M51.3,2.97c-0.29,0.38-0.72,0.79-1.1,1.05
		c-0.06-0.1-0.18-0.3-0.26-0.39c0.33-0.21,0.71-0.57,0.9-0.85L51.3,2.97z M53.65,4.56h-0.55v1.4c0,0.26-0.05,0.39-0.22,0.46
		C52.71,6.49,52.46,6.5,52.1,6.5c-0.02-0.14-0.08-0.34-0.14-0.48c0.23,0.01,0.49,0.01,0.56,0.01c0.07,0,0.1-0.02,0.1-0.08V4.56
		h-1.18V4.11h2.21V4.56z M53.55,3.46h-1.94V3.01h1.94V3.46z"/>
	<path class="st2" d="M55.57,5.35c-0.05-0.1-0.14-0.26-0.24-0.4v1.56h-0.46V5.07c-0.13,0.31-0.28,0.59-0.44,0.79
		c-0.04-0.14-0.14-0.33-0.22-0.45c0.22-0.26,0.44-0.68,0.59-1.07H54.3V3.9h0.57V3.43c-0.17,0.03-0.33,0.06-0.49,0.08
		c-0.02-0.11-0.08-0.27-0.13-0.36c0.44-0.08,0.93-0.19,1.24-0.33l0.32,0.36c-0.14,0.06-0.3,0.11-0.48,0.15V3.9h0.43v0.44h-0.43v0.12
		c0.11,0.09,0.44,0.44,0.51,0.52L55.57,5.35z M57.99,6.01v0.42h-2.31V6.01h0.95V5.66h-0.7v-0.4h0.7V4.93h-0.8V4.52h2.07v0.41h-0.8
		v0.33h0.71v0.4H57.1v0.35H57.99z M57.79,4.28h-1.83V2.93h1.83V4.28z M57.33,3.33H56.4v0.55h0.93V3.33z"/>
	<path class="st2" d="M60.59,4.66v0.56l0.17-0.25c0.4,0.15,1.02,0.39,1.33,0.54l-0.26,0.43C61.55,5.79,61,5.55,60.59,5.38v1.13
		h-0.51V4.66h-1.46V4.19h1.44V2.78h0.5v0.48h1.29v0.46h-1.29v0.48h1.67v0.47H60.59z"/>
</g>
</svg>
